<svg xmlns="http://www.w3.org/2000/svg" viewBox="0 0 512 512">
  <defs>
    <linearGradient id="bg" x1="0%" y1="0%" x2="0%" y2="100%">
      <stop offset="0%" style="stop-color:#1e293b;stop-opacity:1" />
      <stop offset="100%" style="stop-color:#0f172a;stop-opacity:1" />
    </linearGradient>
    <filter id="glow" x="-20%" y="-20%" width="140%" height="140%">
      <feGaussianBlur stdDeviation="15" result="blur" />
      <feComposite in="SourceGraphic" in2="blur" operator="over" />
    </filter>
  </defs>
  
  <!-- Background Container (Required for PWA) -->
  <rect width="512" height="512" fill="url(#bg)" rx="100" ry="100"/>
  
  <!-- Layer 1: Background K-Line Chart (More Visible) -->
  <g opacity="0.6">
      <!-- Grid -->
      <path d="M60,128 H452 M60,256 H452 M60,384 H452" stroke="#475569" stroke-width="2" stroke-dasharray="10,10"/>
      
      <!-- Moving Averages (Red and Green) -->
      <path d="M60,360 C200,360 300,360 452,390" stroke="#ef4444" stroke-width="8" fill="none"/> 
      <path d="M60,340 C200,340 300,290 452,190" stroke="#22c55e" stroke-width="8" fill="none"/> 
      
      <!-- Candles -->
      <rect x="100" y="290" width="20" height="60" fill="#22c55e" />
      <line x1="110" y1="280" x2="110" y2="360" stroke="#22c55e" stroke-width="4"/>
      
      <rect x="150" y="250" width="20" height="40" fill="#ef4444" />
      <line x1="160" y1="240" x2="160" y2="300" stroke="#ef4444" stroke-width="4"/>
      
      <rect x="200" y="200" width="20" height="80" fill="#ef4444" />
      <line x1="210" y1="190" x2="210" y2="290" stroke="#ef4444" stroke-width="4"/>
      
      <rect x="350" y="100" width="20" height="100" fill="#ef4444" />
      <line x1="360" y1="90" x2="360" y2="210" stroke="#ef4444" stroke-width="4"/>
  </g>

  <!-- Layer 2: Yellow Lightning Bolt (Foreground) -->
  <g filter="url(#glow)">
      <path d="M280,40 L160,260 L260,260 L220,472 L380,220 L280,220 Z" 
            fill="#facc15" 
            stroke="#b45309" 
            stroke-width="8" 
            stroke-linejoin="round"/>
  </g>
</svg>